<?xml version="1.0" encoding="UTF-8"?>
<svg id="Layer_1" data-name="Layer 1" xmlns="http://www.w3.org/2000/svg" viewBox="0 0 1200 1200">
  <defs>
    <style>
      .cls-1 {
        fill: #c5e0fa;
      }
    </style>
  </defs>
  <path class="cls-1" d="M849.38,370.18c47.09-25.46,83.81-10.55,49.52,37.02-31.56,43.63-68.45,82.94-86.57,133.32-13.75,32.46-15.5,60.02-5.93,83.67,8.76,21.65,24.64,34.95,74.01,66.22,68.28,43.25,118.71,68.74,174.55,105.18,13.88,9.06,80.79,53.1,75,64.88-1.9,3.86-11.73,4.55-20.08,5.14-12.4.88-21.83-1.63-23.93-2-22.66-3.96-46.78-11.8-69.92-16.46-99.17-19.2-278.3-70.21-353.59,8.14-19.21,20.46-29.02,43.54-41.55,68.22-21.01,42.68-38.78,83.67-48.1,128-6.12,19.68-20.73,45.14-39.57,55.14-1.61.6-4.04,1.23-6.63.67-12.09-2.64-17.45-29.18-15.71-107.2,1.46-65.39,6.12-115.14,6.12-115.14,7.37-57.81,14.26-105.09-31.13-154.04-82.15-85.3-224.68-55.95-335.19-78.54-41.58-13.07-5.36-40.99,22.28-44.62,76.34-13.04,246.18-30.06,292.18-87.24,66.59-79.91,90.24-190.65,108.45-283.27,5.58-40.63,3.94-94.73,9.4-133.07,1.31-9.17,4.33-15.45,8.81-16.78,11.41-1.81,18.09,16.56,19.48,26.51,13.44,95.95-19.02,159.85,14.2,279.07,15.5,55.63,37.51,64.29,45.98,66.49,16.3,4.22,32.41-2.56,67.36-21.67,29.32-16.04,67.41-38.31,110.55-67.64Z"/>
</svg>